REM DIRINDEX 1\2\4,1\2\5,1\3\6,1\3\7
REM DIRNAME cjc072,folder01,folder02,folder03,folder04,folder05,folder06
TITLE ""
FILE "grammar_ch01.mp3" MP3
  TRACK 01 AUDIO
    TITLE "5:cjc072_001"
    INDEX 01 00:00:00
  TRACK 02 AUDIO
    TITLE "5:cjc072_002"
    INDEX 01 00:01:64
  TRACK 03 AUDIO
    TITLE "4:cjc072_003"
    INDEX 01 00:03:45
  TRACK 04 AUDIO
    TITLE "0:"
    INDEX 01 00:10:59
  TRACK 05 AUDIO
    TITLE "7:cjc072_004"
    INDEX 01 00:12:22
  TRACK 06 AUDIO
    TITLE "7:cjc072_005"
    INDEX 01 00:14:35
  TRACK 07 AUDIO
    TITLE "6:cjc072_006"
    INDEX 01 00:16:10
  TRACK 08 AUDIO
    TITLE "0:"
    INDEX 01 00:23:08
  TRACK 09 AUDIO
    TITLE "5:cjc072_007"
    INDEX 01 00:24:49
  TRACK 10 AUDIO
    TITLE "4:cjc072_008"
    INDEX 01 00:26:30
  TRACK 11 AUDIO
    TITLE "0:"
    INDEX 01 00:34:28
  TRACK 12 AUDIO
    TITLE "7:cjc072_009"
    INDEX 01 00:35:68
  TRACK 13 AUDIO
    TITLE "6:cjc072_010"
    INDEX 01 00:37:34
  TRACK 14 AUDIO
    TITLE "0:"
    INDEX 01 00:45:20
  TRACK 15 AUDIO
    TITLE "5:cjc072_011"
    INDEX 01 00:46:62
  TRACK 16 AUDIO
    TITLE "4:cjc072_012"
    INDEX 01 00:48:51
  TRACK 17 AUDIO
    TITLE "0:"
    INDEX 01 00:55:69
  TRACK 18 AUDIO
    TITLE "7:cjc072_013"
    INDEX 01 00:57:35
  TRACK 19 AUDIO
    TITLE "6:cjc072_014"
    INDEX 01 00:59:00
  TRACK 20 AUDIO
    TITLE "0:"
    INDEX 01 01:06:61
  TRACK 21 AUDIO
    TITLE "5:cjc072_015"
    INDEX 01 01:08:27
  TRACK 22 AUDIO
    TITLE "4:cjc072_016"
    INDEX 01 01:10:08
  TRACK 23 AUDIO
    TITLE "0:"
    INDEX 01 01:14:66
  TRACK 24 AUDIO
    TITLE "7:cjc072_017"
    INDEX 01 01:16:32
  TRACK 25 AUDIO
    TITLE "6:cjc072_018"
    INDEX 01 01:18:02
  TRACK 26 AUDIO
    TITLE "0:"
    INDEX 01 01:23:05
  TRACK 27 AUDIO
    TITLE "5:cjc072_019"
    INDEX 01 01:24:45
  TRACK 28 AUDIO
    TITLE "4:cjc072_020"
    INDEX 01 01:26:38
  TRACK 29 AUDIO
    TITLE "0:"
    INDEX 01 01:34:22
  TRACK 30 AUDIO
    TITLE "7:cjc072_021"
    INDEX 01 01:35:61
  TRACK 31 AUDIO
    TITLE "6:cjc072_022"
    INDEX 01 01:37:30
  TRACK 32 AUDIO
    TITLE "0:"
    INDEX 01 01:45:20
  TRACK 33 AUDIO
    TITLE "5:cjc072_023"
    INDEX 01 01:46:65
  TRACK 34 AUDIO
    TITLE "4:cjc072_024"
    INDEX 01 01:48:46
  TRACK 35 AUDIO
    TITLE "0:"
    INDEX 01 01:53:47
  TRACK 36 AUDIO
    TITLE "7:cjc072_025"
    INDEX 01 01:55:13
  TRACK 37 AUDIO
    TITLE "6:cjc072_026"
    INDEX 01 01:56:55
  TRACK 38 AUDIO
    TITLE "0:"
    INDEX 01 02:02:32
  TRACK 39 AUDIO
    TITLE "5:cjc072_027"
    INDEX 01 02:04:00
  TRACK 40 AUDIO
    TITLE "4:cjc072_028"
    INDEX 01 02:05:54
  TRACK 41 AUDIO
    TITLE "0:"
    INDEX 01 02:12:05
  TRACK 42 AUDIO
    TITLE "7:cjc072_029"
    INDEX 01 02:13:54
  TRACK 43 AUDIO
    TITLE "6:cjc072_030"
    INDEX 01 02:15:17
  TRACK 44 AUDIO
    TITLE "0:"
    INDEX 01 02:22:04
  TRACK 45 AUDIO
    TITLE "5:cjc072_031"
    INDEX 01 02:23:44
  TRACK 46 AUDIO
    TITLE "4:cjc072_032"
    INDEX 01 02:25:04
  TRACK 47 AUDIO
    TITLE "0:"
    INDEX 01 02:30:62
  TRACK 48 AUDIO
    TITLE "7:cjc072_033"
    INDEX 01 02:32:31
  TRACK 49 AUDIO
    TITLE "6:cjc072_034"
    INDEX 01 02:33:64
  TRACK 50 AUDIO
    TITLE "0:"
    INDEX 01 02:40:01
  TRACK 51 AUDIO
    TITLE "5:cjc072_035"
    INDEX 01 02:41:40
  TRACK 52 AUDIO
    TITLE "4:cjc072_036"
    INDEX 01 02:43:14
  TRACK 53 AUDIO
    TITLE "0:"
    INDEX 01 02:48:26
  TRACK 54 AUDIO
    TITLE "7:cjc072_037"
    INDEX 01 02:49:67
  TRACK 55 AUDIO
    TITLE "6:cjc072_038"
    INDEX 01 02:51:37
  TRACK 56 AUDIO
    TITLE "0:"
    INDEX 01 02:56:57
  TRACK 57 AUDIO
    TITLE "5:cjc072_039"
    INDEX 01 02:58:23
  TRACK 58 AUDIO
    TITLE "4:cjc072_040"
    INDEX 01 02:59:63
  TRACK 59 AUDIO
    TITLE "0:"
    INDEX 01 03:06:07
  TRACK 60 AUDIO
    TITLE "7:cjc072_041"
    INDEX 01 03:07:63
  TRACK 61 AUDIO
    TITLE "6:cjc072_042"
    INDEX 01 03:09:29
  TRACK 62 AUDIO
    TITLE "0:"
    INDEX 01 03:15:47
  TRACK 63 AUDIO
    TITLE "5:cjc072_043"
    INDEX 01 03:17:14
  TRACK 64 AUDIO
    TITLE "4:cjc072_044"
    INDEX 01 03:18:65
  TRACK 65 AUDIO
    TITLE "0:"
    INDEX 01 03:24:58
  TRACK 66 AUDIO
    TITLE "7:cjc072_045"
    INDEX 01 03:26:31
  TRACK 67 AUDIO
    TITLE "6:cjc072_046"
    INDEX 01 03:28:08
  TRACK 68 AUDIO
    TITLE "0:"
    INDEX 01 03:34:17
  TRACK 69 AUDIO
    TITLE "5:cjc072_047"
    INDEX 01 03:35:61
  TRACK 70 AUDIO
    TITLE "4:cjc072_048"
    INDEX 01 03:37:37
  TRACK 71 AUDIO
    TITLE "0:"
    INDEX 01 03:43:61
  TRACK 72 AUDIO
    TITLE "7:cjc072_049"
    INDEX 01 03:45:32
  TRACK 73 AUDIO
    TITLE "6:cjc072_050"
    INDEX 01 03:47:08
  TRACK 74 AUDIO
    TITLE "0:"
    INDEX 01 03:53:44
  TRACK 75 AUDIO
    TITLE "5:cjc072_051"
    INDEX 01 03:55:05
  TRACK 76 AUDIO
    TITLE "4:cjc072_052"
    INDEX 01 03:56:61
  TRACK 77 AUDIO
    TITLE "0:"
    INDEX 01 04:01:63
  TRACK 78 AUDIO
    TITLE "7:cjc072_053"
    INDEX 01 04:03:28
  TRACK 79 AUDIO
    TITLE "6:cjc072_054"
    INDEX 01 04:05:11
  TRACK 80 AUDIO
    TITLE "0:"
    INDEX 01 04:10:40
  TRACK 81 AUDIO
    TITLE "5:cjc072_055"
    INDEX 01 04:12:08
  TRACK 82 AUDIO
    TITLE "4:cjc072_056"
    INDEX 01 04:13:72
  TRACK 83 AUDIO
    TITLE "0:"
    INDEX 01 04:18:47
  TRACK 84 AUDIO
    TITLE "7:cjc072_057"
    INDEX 01 04:20:13
  TRACK 85 AUDIO
    TITLE "6:cjc072_058"
    INDEX 01 04:21:71
  TRACK 86 AUDIO
    TITLE "0:"
    INDEX 01 04:26:53
  TRACK 87 AUDIO
    TITLE "5:cjc072_059"
    INDEX 01 04:28:20
  TRACK 88 AUDIO
    TITLE "4:cjc072_060"
    INDEX 01 04:30:06
  TRACK 89 AUDIO
    TITLE "0:"
    INDEX 01 04:34:74
  TRACK 90 AUDIO
    TITLE "7:cjc072_061"
    INDEX 01 04:36:43
  TRACK 91 AUDIO
    TITLE "6:cjc072_062"
    INDEX 01 04:38:21
  TRACK 92 AUDIO
    TITLE "0:"
    INDEX 01 04:42:56
  TRACK 93 AUDIO
    TITLE "5:cjc072_063"
    INDEX 01 04:44:27
  TRACK 94 AUDIO
    TITLE "4:cjc072_064"
    INDEX 01 04:46:06
  TRACK 95 AUDIO
    TITLE "0:"
    INDEX 01 04:52:56
  TRACK 96 AUDIO
    TITLE "7:cjc072_065"
    INDEX 01 04:54:28
  TRACK 97 AUDIO
    TITLE "6:cjc072_066"
    INDEX 01 04:56:07
  TRACK 98 AUDIO
    TITLE "0:"
    INDEX 01 05:02:54
  TRACK 99 AUDIO
    TITLE "5:cjc072_067"
    INDEX 01 05:04:22
  TRACK 100 AUDIO
    TITLE "4:cjc072_068"
    INDEX 01 05:06:07
  TRACK 101 AUDIO
    TITLE "0:"
    INDEX 01 05:11:65
  TRACK 102 AUDIO
    TITLE "7:cjc072_069"
    INDEX 01 05:13:41
  TRACK 103 AUDIO
    TITLE "6:cjc072_070"
    INDEX 01 05:15:24
  TRACK 104 AUDIO
    TITLE "0:"
    INDEX 01 05:20:62
  TRACK 105 AUDIO
    TITLE "5:cjc072_071"
    INDEX 01 05:22:30
  TRACK 106 AUDIO
    TITLE "4:cjc072_072"
    INDEX 01 05:24:19
  TRACK 107 AUDIO
    TITLE "0:"
    INDEX 01 05:29:49
  TRACK 108 AUDIO
    TITLE "7:cjc072_073"
    INDEX 01 05:31:11
  TRACK 109 AUDIO
    TITLE "6:cjc072_074"
    INDEX 01 05:32:67
  TRACK 110 AUDIO
    TITLE "0:"
    INDEX 01 05:38:35
  TRACK 111 AUDIO
    TITLE "5:cjc072_075"
    INDEX 01 05:40:02
  TRACK 112 AUDIO
    TITLE "4:cjc072_076"
    INDEX 01 05:41:70
  TRACK 113 AUDIO
    TITLE "0:"
    INDEX 01 05:47:16
  TRACK 114 AUDIO
    TITLE "7:cjc072_077"
    INDEX 01 05:48:64
  TRACK 115 AUDIO
    TITLE "6:cjc072_078"
    INDEX 01 05:50:46
  TRACK 116 AUDIO
    TITLE "0:"
    INDEX 01 05:55:72
  TRACK 117 AUDIO
    TITLE "5:cjc072_079"
    INDEX 01 05:57:38
  TRACK 118 AUDIO
    TITLE "4:cjc072_080"
    INDEX 01 05:59:15
  TRACK 119 AUDIO
    TITLE "0:"
    INDEX 01 06:04:14
  TRACK 120 AUDIO
    TITLE "7:cjc072_081"
    INDEX 01 06:05:59
  TRACK 121 AUDIO
    TITLE "6:cjc072_082"
    INDEX 01 06:07:27
  TRACK 122 AUDIO
    TITLE "0:"
    INDEX 01 06:12:08
  TRACK 123 AUDIO
    TITLE "5:cjc072_083"
    INDEX 01 06:13:53
  TRACK 124 AUDIO
    TITLE "4:cjc072_084"
    INDEX 01 06:15:34
  TRACK 125 AUDIO
    TITLE "0:"
    INDEX 01 06:20:66
  TRACK 126 AUDIO
    TITLE "7:cjc072_085"
    INDEX 01 06:22:28
  TRACK 127 AUDIO
    TITLE "6:cjc072_086"
    INDEX 01 06:24:09
  TRACK 128 AUDIO
    TITLE "0:"
    INDEX 01 06:29:26
  TRACK 129 AUDIO
    TITLE "5:cjc072_087"
    INDEX 01 06:30:73
  TRACK 130 AUDIO
    TITLE "4:cjc072_088"
    INDEX 01 06:32:62
  TRACK 131 AUDIO
    TITLE "0:"
    INDEX 01 06:41:12
  TRACK 132 AUDIO
    TITLE "7:cjc072_089"
    INDEX 01 06:42:56
  TRACK 133 AUDIO
    TITLE "6:cjc072_090"
    INDEX 01 06:44:43
  TRACK 134 AUDIO
    TITLE "0:"
    INDEX 01 06:52:43
  TRACK 135 AUDIO
    TITLE "5:cjc072_091"
    INDEX 01 06:54:10
  TRACK 136 AUDIO
    TITLE "4:cjc072_092"
    INDEX 01 06:56:01
  TRACK 137 AUDIO
    TITLE "0:"
    INDEX 01 07:00:70
  TRACK 138 AUDIO
    TITLE "7:cjc072_093"
    INDEX 01 07:02:37
  TRACK 139 AUDIO
    TITLE "6:cjc072_094"
    INDEX 01 07:04:26
  TRACK 140 AUDIO
    TITLE "0:"
    INDEX 01 07:09:02
